<svg width="22" height="22" viewBox="0 0 22 22" fill="none" xmlns="http://www.w3.org/2000/svg">
<path d="M10.8333 14.914L14.914 10.8333L10.8333 6.75269L9.56936 8.01667L11.4833 9.93065H6.68065V11.736H11.4833L9.56936 13.65L10.8333 14.914ZM10.8333 21.6667C9.34682 21.6667 7.94454 21.3823 6.62648 20.8135C5.30842 20.2448 4.15883 19.4699 3.17769 18.489C2.19673 17.5078 1.42188 16.3582 0.853125 15.0402C0.284375 13.7221 0 12.3198 0 10.8333C0 9.33472 0.284375 7.92639 0.853125 6.60833C1.42188 5.29028 2.19673 4.14375 3.17769 3.16875C4.15883 2.19375 5.30842 1.42188 6.62648 0.853125C7.94454 0.284375 9.34682 0 10.8333 0C12.3319 0 13.7403 0.284375 15.0583 0.853125C16.3764 1.42188 17.5229 2.19375 18.4979 3.16875C19.4729 4.14375 20.2448 5.29028 20.8135 6.60833C21.3823 7.92639 21.6667 9.33472 21.6667 10.8333C21.6667 12.3198 21.3823 13.7221 20.8135 15.0402C20.2448 16.3582 19.4729 17.5078 18.4979 18.489C17.5229 19.4699 16.3764 20.2448 15.0583 20.8135C13.7403 21.3823 12.3319 21.6667 10.8333 21.6667ZM10.8333 19.861C13.349 19.861 15.4826 18.9823 17.2339 17.225C18.9853 15.4677 19.861 13.3371 19.861 10.8333C19.861 8.31765 18.9853 6.18412 17.2339 4.43273C15.4826 2.68134 13.349 1.80565 10.8333 1.80565C8.32957 1.80565 6.19901 2.68134 4.44167 4.43273C2.68432 6.18412 1.80565 8.31765 1.80565 10.8333C1.80565 13.3371 2.68432 15.4677 4.44167 17.225C6.19901 18.9823 8.32957 19.861 10.8333 19.861Z" fill="#5851C9"/>
</svg>
