<svg width="32" height="32" viewBox="0 0 32 32" fill="none" xmlns="http://www.w3.org/2000/svg">
<g opacity="0.4">
<path d="M25.5121 13.4869C25.4992 13.4869 25.4873 13.4905 25.4746 13.4906C25.7114 12.9427 25.8442 12.3392 25.8442 11.7043C25.8442 9.21472 23.8259 7.19643 21.3363 7.19643C20.4564 7.19643 19.6382 7.45251 18.9443 7.88845C18.0057 5.60734 15.7637 3.99996 13.144 3.99996C9.67993 3.99996 6.87193 6.80796 6.87193 10.272C6.87193 10.5338 6.89313 10.7903 6.92431 11.0436C6.90665 11.0434 6.8896 11.041 6.87193 11.041C4.5495 11.041 2.66663 12.9238 2.66663 15.2464C2.66663 17.5688 4.5495 19.4516 6.87193 19.4516H25.5121C27.1592 19.4516 28.4944 18.1164 28.4944 16.4693C28.4944 14.8221 27.1592 13.4869 25.5121 13.4869Z" fill="white"/>
<path d="M10.9314 26.7994C10.4248 27.8533 9.15965 28.2971 8.10573 27.7905C7.05181 27.2839 6.60803 26.0188 7.11464 24.9649C7.6214 23.9109 10.8974 21.9825 10.8974 21.9825C10.8974 21.9825 11.438 25.7455 10.9314 26.7994Z" fill="white"/>
<path d="M16.1964 26.7994C15.6899 27.8533 14.4248 28.2971 13.3709 27.7905C12.3168 27.2839 11.8732 26.0188 12.3798 24.9649C12.8866 23.9109 16.1626 21.9825 16.1626 21.9825C16.1626 21.9825 16.7032 25.7455 16.1964 26.7994Z" fill="white"/>
<path d="M21.5359 26.7994C21.0293 27.8533 19.7642 28.2971 18.7103 27.7905C17.6564 27.2839 17.2127 26.0188 17.7192 24.9649C18.2259 23.9109 21.502 21.9825 21.502 21.9825C21.502 21.9825 22.0425 25.7455 21.5359 26.7994Z" fill="white"/>
</g>
</svg>
