<svg width="13" height="16" viewBox="0 0 13 16" fill="none" xmlns="http://www.w3.org/2000/svg">
<path d="M6.41667 4.58333C5.40833 4.58333 4.58333 5.40833 4.58333 6.41667C4.58333 7.425 5.40833 8.25 6.41667 8.25C7.425 8.25 8.25 7.425 8.25 6.41667C8.25 5.40833 7.425 4.58333 6.41667 4.58333ZM6.41667 0C9.41417 0 12.8333 2.255 12.8333 6.55417C12.8333 9.28583 10.8808 12.1642 6.97583 15.1617C6.64583 15.4183 6.1875 15.4183 5.8575 15.1617C1.9525 12.155 0 9.28583 0 6.55417C0 2.255 3.41917 0 6.41667 0Z" fill="#9D99E4"/>
</svg>
