<svg width="32" height="32" viewBox="0 0 32 32" fill="none" xmlns="http://www.w3.org/2000/svg">
<g opacity="0.4">
<path d="M6.60368 25.0844C5.94999 26.4441 6.52262 28.0774 7.88253 28.7295C9.24263 29.3836 10.8749 28.8107 11.5286 27.451C12.1823 26.0913 11.4848 21.2352 11.4848 21.2352C11.4848 21.2352 7.25757 23.7247 6.60368 25.0844Z" fill="white"/>
<path d="M13.8929 25.0844C13.2394 26.4441 13.8118 28.0774 15.1719 28.7295C16.5317 29.3836 18.1641 28.8107 18.8178 27.451C19.4715 26.0913 18.774 21.2352 18.774 21.2352C18.774 21.2352 14.5466 23.7247 13.8929 25.0844Z" fill="white"/>
<path d="M17.0033 18.6483C17.657 17.2886 16.9595 12.4325 16.9595 12.4325C16.9595 12.4325 12.7323 14.922 12.0784 16.2817C11.4247 17.6414 11.9973 19.2746 13.3573 19.9267C14.7174 20.5808 16.3496 20.008 17.0033 18.6483Z" fill="white"/>
<path d="M21.2916 19.9267C22.6515 20.5808 24.2837 20.008 24.9374 18.6483C25.5911 17.2886 24.8936 12.4325 24.8936 12.4325C24.8936 12.4325 20.6664 14.922 20.0125 16.2817C19.359 17.6414 19.9315 19.2746 21.2916 19.9267Z" fill="white"/>
<path d="M23.7132 10.5486C24.3671 9.18869 23.6698 4.33317 23.6698 4.33317C23.6698 4.33317 19.4422 6.82148 18.7887 8.18139C18.135 9.5413 18.7072 11.1737 20.0673 11.8274C21.4272 12.4801 23.0595 11.9087 23.7132 10.5486Z" fill="white"/>
<path d="M25.5645 21.2352C25.5645 21.2352 21.3371 23.7247 20.6834 25.0844C20.0297 26.4441 20.6023 28.0774 21.962 28.7295C23.3221 29.3836 24.9544 28.8107 25.6083 27.451C26.262 26.0913 25.5645 21.2352 25.5645 21.2352Z" fill="white"/>
</g>
</svg>
